<?xml version="1.0" standalone="no"?>
<!DOCTYPE svg PUBLIC "-//W3C//DTD SVG 20010904//EN"
 "http://www.w3.org/TR/2001/REC-SVG-20010904/DTD/svg10.dtd">
<svg version="1.0" xmlns="http://www.w3.org/2000/svg"
 width="425.000000pt" height="425.000000pt" viewBox="0 0 425.000000 425.000000"
 preserveAspectRatio="xMidYMid meet">
<metadata>
Created by potrace 1.14, written by Peter Selinger 2001-2017
</metadata>
<g transform="translate(0.000000,425.000000) scale(0.100000,-0.100000)"
fill="#000000" stroke="none">
<path d="M1910 3705 c-47 -7 -87 -13 -90 -13 -3 0 -7 -1 -10 -2 -3 -1 -18 -4
-34 -6 -54 -9 -218 -66 -295 -102 -42 -19 -78 -36 -81 -37 -22 -8 -46 -20 -50
-25 -3 -4 -30 -21 -60 -38 -31 -17 -66 -41 -78 -52 -12 -11 -24 -20 -27 -20
-6 1 -67 -44 -91 -67 -7 -7 -18 -13 -24 -13 -6 0 -8 -4 -5 -10 3 -5 3 -10 -2
-10 -13 0 -93 -79 -156 -154 -97 -114 -237 -338 -237 -378 0 -8 -6 -20 -12
-26 -7 -7 -14 -17 -14 -22 -1 -6 -3 -12 -4 -15 -1 -3 -4 -9 -5 -15 -1 -5 -4
-12 -5 -15 -1 -3 -3 -8 -5 -12 -1 -5 -7 -21 -14 -38 -7 -16 -14 -39 -16 -50
-1 -11 -8 -33 -14 -48 -6 -16 -13 -43 -15 -60 -3 -18 -8 -43 -11 -57 -11 -47
-19 -155 -19 -250 0 -96 11 -278 18 -289 2 -3 7 -26 10 -51 4 -25 8 -52 10
-60 1 -8 6 -33 11 -55 4 -22 12 -46 17 -52 6 -7 8 -19 5 -27 -3 -8 -3 -16 1
-18 4 -2 15 -26 24 -54 10 -28 28 -73 40 -100 12 -27 23 -51 23 -54 7 -27 28
-62 40 -66 8 -3 13 -9 10 -14 -6 -9 54 -108 108 -180 63 -81 279 -294 290
-284 2 2 12 -5 22 -16 10 -11 24 -20 32 -20 7 0 13 -4 13 -9 0 -5 17 -17 38
-26 20 -10 39 -21 42 -25 3 -4 34 -22 70 -41 36 -19 67 -37 68 -41 2 -5 10 -8
18 -8 8 0 33 -9 57 -19 38 -17 64 -27 77 -29 3 -1 32 -11 64 -22 33 -11 61
-18 64 -15 3 2 12 0 21 -4 18 -10 57 -18 181 -37 98 -15 432 -7 515 13 11 2
32 6 46 8 14 2 38 9 52 14 15 6 27 9 27 6 0 -6 197 63 240 84 57 28 230 130
240 141 3 3 21 17 40 30 80 56 205 175 274 260 88 109 179 246 175 266 0 4 3
10 8 13 36 26 134 287 158 421 27 147 27 496 -1 620 -3 14 -8 39 -11 55 -8 43
-11 59 -14 65 -1 3 -3 10 -4 15 -2 6 -4 13 -5 18 -3 8 -4 12 -15 52 -4 17 -10
35 -14 40 -3 6 -6 16 -7 24 -4 26 -48 126 -58 133 -6 4 -8 8 -3 8 4 0 -4 18
-18 40 -14 22 -25 42 -25 45 0 7 -80 127 -89 135 -4 3 -19 22 -34 42 -37 51
-190 205 -252 255 -72 58 -205 146 -272 179 -32 16 -61 33 -64 37 -3 5 -8 8
-10 6 -2 -1 -26 7 -52 19 -64 29 -232 82 -257 82 -11 0 -20 3 -20 8 0 4 -12 7
-27 8 -16 0 -50 4 -78 8 -93 14 -357 15 -445 1z"/>
</g>
</svg>
